<svg width="36" height="36" viewBox="0 0 36 36" fill="none" xmlns="http://www.w3.org/2000/svg">
<rect x="5" y="5" width="8.66667" height="8.66667" rx="2" stroke="#3B3B3B" stroke-width="1.5" stroke-linecap="round" stroke-linejoin="round"/>
<rect x="22.334" y="22.3359" width="8.66667" height="8.66667" rx="2" stroke="#3B3B3B" stroke-width="1.5" stroke-linecap="round" stroke-linejoin="round"/>
<path d="M30.2499 16.5556C30.2499 16.9698 30.5857 17.3056 30.9999 17.3056C31.4141 17.3056 31.7499 16.9698 31.7499 16.5556H30.9999H30.2499ZM19.4443 9.33333V8.58333C19.141 8.58333 18.8675 8.76607 18.7514 9.04632C18.6353 9.32658 18.6995 9.64917 18.914 9.86366L19.4443 9.33333ZM23.2473 14.197C23.5402 14.4899 24.0151 14.4899 24.308 14.197C24.6009 13.9041 24.6009 13.4292 24.308 13.1363L23.7777 13.6667L23.2473 14.197ZM24.3082 5.53033C24.6011 5.23744 24.6011 4.76256 24.3082 4.46967C24.0153 4.17678 23.5404 4.17678 23.2475 4.46967L23.7778 5L24.3082 5.53033ZM18.9142 8.803C18.6213 9.0959 18.6213 9.57077 18.9142 9.86366C19.2071 10.1566 19.6819 10.1566 19.9748 9.86366L19.4445 9.33333L18.9142 8.803ZM30.9999 16.5556H31.7499V12.2222H30.9999H30.2499V16.5556H30.9999ZM30.9999 12.2222H31.7499C31.7499 10.2125 30.1207 8.58333 28.111 8.58333V9.33333V10.0833C29.2923 10.0833 30.2499 11.0409 30.2499 12.2222H30.9999ZM28.111 9.33333V8.58333H19.4443V9.33333V10.0833H28.111V9.33333ZM19.4443 9.33333L18.914 9.86366L23.2473 14.197L23.7777 13.6667L24.308 13.1363L19.9747 8.803L19.4443 9.33333ZM23.7778 5L23.2475 4.46967L18.9142 8.803L19.4445 9.33333L19.9748 9.86366L24.3082 5.53033L23.7778 5Z" fill="#3B3B3B"/>
<path d="M5.75 19.4453C5.75 19.0311 5.41421 18.6953 5 18.6953C4.58579 18.6953 4.25 19.0311 4.25 19.4453H5H5.75ZM16.5556 26.6675V27.4175C16.8589 27.4175 17.1324 27.2348 17.2485 26.9545C17.3646 26.6743 17.3004 26.3517 17.0859 26.1372L16.5556 26.6675ZM12.7526 21.8039C12.4597 21.511 11.9848 21.511 11.6919 21.8039C11.399 22.0968 11.399 22.5716 11.6919 22.8645L12.2222 22.3342L12.7526 21.8039ZM11.6919 30.4705C11.399 30.7634 11.399 31.2383 11.6919 31.5312C11.9848 31.8241 12.4597 31.8241 12.7526 31.5312L12.2222 31.0009L11.6919 30.4705ZM17.0859 27.1979C17.3788 26.905 17.3788 26.4301 17.0859 26.1372C16.793 25.8443 16.3181 25.8443 16.0252 26.1372L16.5556 26.6675L17.0859 27.1979ZM5 19.4453H4.25V23.7786H5H5.75V19.4453H5ZM5 23.7786H4.25C4.25 25.7883 5.87919 27.4175 7.88889 27.4175V26.6675V25.9175C6.70761 25.9175 5.75 24.9599 5.75 23.7786H5ZM7.88889 26.6675V27.4175H16.5556V26.6675V25.9175H7.88889V26.6675ZM16.5556 26.6675L17.0859 26.1372L12.7526 21.8039L12.2222 22.3342L11.6919 22.8645L16.0252 27.1979L16.5556 26.6675ZM12.2222 31.0009L12.7526 31.5312L17.0859 27.1979L16.5556 26.6675L16.0252 26.1372L11.6919 30.4705L12.2222 31.0009Z" fill="#3B3B3B"/>
</svg>
