<svg width="36" height="36" viewBox="0 0 36 36" fill="none" xmlns="http://www.w3.org/2000/svg">
<ellipse cx="10.7785" cy="25.2248" rx="2.88889" ry="2.88889" stroke="#3B3B3B" stroke-width="1.5" stroke-linecap="round" stroke-linejoin="round"/>
<circle cx="25.2229" cy="25.2248" r="2.88889" stroke="#3B3B3B" stroke-width="1.5" stroke-linecap="round" stroke-linejoin="round"/>
<path d="M7.88889 25.974C8.3031 25.974 8.63889 25.6382 8.63889 25.224C8.63889 24.8097 8.3031 24.474 7.88889 24.474V25.224V25.974ZM18.6944 25.224C18.6944 25.6382 19.0302 25.974 19.4444 25.974C19.8587 25.974 20.1944 25.6382 20.1944 25.224H19.4444H18.6944ZM13.6667 24.4744C13.2525 24.4744 12.9167 24.8101 12.9167 25.2244C12.9167 25.6386 13.2525 25.9744 13.6667 25.9744V25.2244V24.4744ZM22.3333 25.9744C22.7475 25.9744 23.0833 25.6386 23.0833 25.2244C23.0833 24.8101 22.7475 24.4744 22.3333 24.4744V25.2244V25.9744ZM28.1111 24.474C27.6969 24.474 27.3611 24.8097 27.3611 25.224C27.3611 25.6382 27.6969 25.974 28.1111 25.974V25.224V24.474ZM19.4444 15.8073C19.0302 15.8073 18.6944 16.1431 18.6944 16.5573C18.6944 16.9715 19.0302 17.3073 19.4444 17.3073V16.5573V15.8073ZM19.4448 8.58547C19.0306 8.58547 18.6948 8.92126 18.6948 9.33547C18.6948 9.74969 19.0306 10.0855 19.4448 10.0855V9.33547V8.58547ZM30.3573 16.9436C30.5704 17.2988 31.0311 17.4139 31.3863 17.2008C31.7415 16.9877 31.8566 16.527 31.6435 16.1718L31.0004 16.5577L30.3573 16.9436ZM27.2497 10.3065L26.6066 10.6924L27.2497 10.3065ZM7.88889 25.224V24.474H7V25.224V25.974H7.88889V25.224ZM5 23.224H5.75V9.33507H5H4.25V23.224H5ZM5 9.33507H5.75C5.75 8.95154 6.06091 8.64062 6.44444 8.64062V7.89062V7.14062C5.23249 7.14062 4.25 8.12311 4.25 9.33507H5ZM6.44444 7.89062V8.64062H17.4444V7.89062V7.14062H6.44444V7.89062ZM19.4444 9.89063H18.6944V25.224H19.4444H20.1944V9.89063H19.4444ZM13.6667 25.2244V25.9744H22.3333V25.2244V24.4744H13.6667V25.2244ZM28.1111 25.224V25.974H29V25.224V24.474H28.1111V25.224ZM31 23.224H31.75V18.5573H31H30.25V23.224H31ZM29 16.5573V15.8073H19.4444V16.5573V17.3073H29V16.5573ZM19.4448 9.33547V10.0855H25.5347V9.33547V8.58547H19.4448V9.33547ZM27.2497 10.3065L26.6066 10.6924L30.3573 16.9436L31.0004 16.5577L31.6435 16.1718L27.8928 9.92061L27.2497 10.3065ZM25.5347 9.33547V10.0855C25.9738 10.0855 26.3807 10.3158 26.6066 10.6924L27.2497 10.3065L27.8928 9.92061C27.3958 9.09229 26.5007 8.58547 25.5347 8.58547V9.33547ZM31 18.5573H31.75C31.75 17.0385 30.5188 15.8073 29 15.8073V16.5573V17.3073C29.6904 17.3073 30.25 17.8669 30.25 18.5573H31ZM29 25.224V25.974C30.5188 25.974 31.75 24.7427 31.75 23.224H31H30.25C30.25 23.9143 29.6904 24.474 29 24.474V25.224ZM17.4444 7.89062V8.64062C18.1348 8.64062 18.6944 9.20027 18.6944 9.89063H19.4444H20.1944C20.1944 8.37184 18.9632 7.14062 17.4444 7.14062V7.89062ZM7 25.224V24.474C6.30964 24.474 5.75 23.9143 5.75 23.224H5H4.25C4.25 24.7427 5.48122 25.974 7 25.974V25.224Z" fill="#3B3B3B"/>
<path d="M9.33398 15.8355H15.1118" stroke="#3B3B3B" stroke-width="1.5" stroke-linecap="round" stroke-linejoin="round"/>
</svg>
