<svg width="600" height="224" viewBox="0 0 600 224" fill="none" xmlns="http://www.w3.org/2000/svg">
<g clip-path="url(#clip0_660_3044)">
<rect width="600" height="224" rx="16" fill="url(#paint0_radial_660_3044)"/>
<g opacity="0.07">
<path fill-rule="evenodd" clip-rule="evenodd" d="M488.822 230.339C487.41 233.408 484.308 235.539 480.708 235.539C475.778 235.539 471.781 231.542 471.781 226.612C471.781 221.682 475.778 217.685 480.708 217.685C484.19 217.685 487.206 219.678 488.678 222.585C489.666 224.197 492.215 225.223 494.099 225.223C495.918 225.223 498.256 224.382 499.389 222.855C500.808 219.802 503.902 217.685 507.49 217.685C512.42 217.685 516.417 221.682 516.417 226.612C516.417 231.542 512.42 235.539 507.49 235.539C503.9 235.539 500.805 233.42 499.387 230.364C498.266 228.842 496.027 228 494.099 228C492.141 228 489.772 228.78 488.822 230.339Z" fill="#969696"/>
<path fill-rule="evenodd" clip-rule="evenodd" d="M534.271 110.562C539.201 110.562 543.198 114.558 543.198 119.488C543.198 123.078 541.079 126.173 538.024 127.59C536.501 128.712 535.659 130.952 535.659 132.879C535.659 134.835 536.437 137.201 537.993 138.153C541.065 139.564 543.198 142.668 543.198 146.269C543.198 151.2 539.201 155.196 534.271 155.196C529.34 155.196 525.344 151.2 525.344 146.269C525.344 142.785 527.34 139.767 530.251 138.297C531.858 137.305 532.882 134.76 532.882 132.879C532.882 131.059 532.04 128.721 530.513 127.588C527.46 126.17 525.344 123.076 525.344 119.488C525.344 114.558 529.34 110.562 534.271 110.562Z" fill="#969696"/>
<path fill-rule="evenodd" clip-rule="evenodd" d="M595.95 230.328C594.54 233.403 591.435 235.539 587.831 235.539C582.901 235.539 578.904 231.542 578.904 226.612C578.904 221.682 582.901 217.685 587.831 217.685C591.319 217.685 594.339 219.685 595.808 222.6C596.803 224.203 599.343 225.223 601.221 225.223C603.039 225.223 605.376 224.382 606.51 222.856C607.928 219.803 611.022 217.685 614.611 217.685C619.541 217.685 623.537 221.682 623.537 226.612C623.537 231.542 619.541 235.539 614.611 235.539C611.02 235.539 607.925 233.419 606.508 230.363C605.386 228.841 603.147 228 601.221 228C599.267 228 596.904 228.776 595.95 230.328Z" fill="#969696"/>
<path d="M445.002 199.831C445.002 194.901 448.998 190.904 453.929 190.904C458.859 190.904 462.855 194.901 462.855 199.831C462.855 204.761 458.859 208.758 453.929 208.758C448.998 208.758 445.002 204.761 445.002 199.831Z" fill="#969696"/>
<path fill-rule="evenodd" clip-rule="evenodd" d="M472.738 203.856C471.749 202.245 469.2 201.219 467.317 201.219C465.341 201.219 462.754 202.212 461.762 203.997C461.654 204.191 461.651 195.467 461.762 195.665C462.757 197.448 465.222 198.442 467.317 198.442C469.275 198.442 471.645 197.662 472.594 196.103C474.007 193.034 477.108 190.904 480.708 190.904C485.638 190.904 489.635 194.901 489.635 199.831C489.635 204.761 485.638 208.758 480.708 208.758C477.226 208.758 474.209 206.764 472.738 203.856ZM457.65 218.496C460.721 219.907 462.854 223.01 462.854 226.612C462.854 231.542 458.857 235.539 453.927 235.539C448.997 235.539 445 231.542 445 226.612C445 223.128 446.996 220.11 449.906 218.639C451.514 217.648 452.538 215.103 452.538 213.221C452.538 211.246 451.546 208.659 449.761 207.667C449.567 207.559 458.291 207.556 458.093 207.667C456.31 208.662 455.315 211.126 455.315 213.221C455.315 215.177 456.093 217.544 457.65 218.496Z" fill="#969696"/>
<path fill-rule="evenodd" clip-rule="evenodd" d="M552.123 92.7077C552.123 87.7775 556.12 83.7808 561.05 83.7808H561.05H561.05C564.641 83.7808 567.736 85.9005 569.153 88.9568C570.275 90.478 572.514 91.3189 574.44 91.3189C576.398 91.3189 578.769 90.539 579.718 88.9788C581.13 85.9107 584.232 83.7808 587.831 83.7808C592.761 83.7808 596.758 87.7775 596.758 92.7077C596.758 97.6379 592.761 101.635 587.831 101.635C584.35 101.635 581.333 99.6414 579.862 96.7338C578.873 95.1224 576.324 94.0961 574.44 94.0961C572.622 94.0961 570.286 94.9365 569.152 96.462C568.263 98.3773 566.714 99.9245 564.798 100.812C563.278 101.934 562.437 104.172 562.437 106.098C562.437 108.052 563.213 110.416 564.766 111.369C567.841 112.779 569.977 115.884 569.977 119.489C569.977 124.419 565.981 128.416 561.05 128.416C556.12 128.416 552.123 124.419 552.123 119.489C552.123 116.009 554.114 112.994 557.019 111.522C558.632 110.534 559.66 107.983 559.66 106.098C559.66 104.278 558.817 101.938 557.288 100.806C554.238 99.3864 552.123 96.294 552.123 92.7077Z" fill="#666666"/>
<path fill-rule="evenodd" clip-rule="evenodd" d="M579.852 203.839C578.856 202.238 576.319 201.219 574.442 201.219C572.623 201.219 570.286 202.06 569.153 203.586C568.263 205.501 566.716 207.048 564.8 207.935C563.279 209.057 562.439 211.295 562.439 213.221C562.439 215.177 563.216 217.544 564.772 218.495C567.844 219.906 569.977 223.01 569.977 226.612C569.977 231.542 565.98 235.539 561.05 235.539C556.12 235.539 552.123 231.542 552.123 226.612C552.123 223.128 554.119 220.11 557.03 218.639C558.638 217.648 559.661 215.103 559.661 213.221C559.661 211.402 558.82 209.064 557.292 207.931C554.24 206.512 552.123 203.419 552.123 199.831C552.123 194.901 556.12 190.904 561.05 190.904C561.14 190.904 561.229 190.905 561.319 190.908C564.794 191.01 567.772 193.099 569.154 196.079C570.275 197.601 572.515 198.442 574.442 198.442C576.394 198.442 578.757 197.667 579.711 196.115C581.121 193.04 584.226 190.904 587.831 190.904C592.761 190.904 596.758 194.901 596.758 199.831C596.758 204.761 592.761 208.758 587.831 208.758C584.342 208.758 581.321 206.757 579.852 203.839Z" fill="#969696"/>
<path fill-rule="evenodd" clip-rule="evenodd" d="M507.486 208.758C511.09 208.758 514.195 206.622 515.605 203.547C516.559 201.995 518.922 201.22 520.875 201.22C522.805 201.22 525.048 202.064 526.168 203.59C527.056 205.5 528.599 207.043 530.509 207.931C532.036 209.064 532.878 211.402 532.878 213.221C532.878 215.103 531.855 217.647 530.248 218.639C527.336 220.109 525.34 223.127 525.34 226.612C525.34 231.542 529.337 235.539 534.267 235.539C539.197 235.539 543.194 231.542 543.194 226.612C543.194 223.01 541.06 219.906 537.988 218.495C536.433 217.543 535.655 215.177 535.655 213.221C535.655 211.294 536.497 209.054 538.02 207.933C538.19 207.854 538.358 207.77 538.522 207.68C541.305 206.169 543.194 203.221 543.194 199.831C543.194 194.901 539.197 190.904 534.267 190.904C533.706 190.904 533.158 190.956 532.627 191.054C529.755 191.588 527.367 193.495 526.169 196.068C525.038 197.599 522.696 198.443 520.875 198.443C518.998 198.443 516.46 197.424 515.464 195.822C513.995 192.905 510.974 190.904 507.486 190.904C502.555 190.904 498.559 194.901 498.559 199.831C498.559 204.761 502.555 208.758 507.486 208.758Z" fill="#666666"/>
<path fill-rule="evenodd" clip-rule="evenodd" d="M516.416 173.05C516.416 169.448 514.283 166.345 511.212 164.934C509.656 163.982 508.878 161.615 508.878 159.66C508.878 157.733 509.719 155.493 511.241 154.372C514.297 152.955 516.417 149.86 516.417 146.269C516.417 143.65 515.289 141.294 513.492 139.661C513.386 139.565 513.278 139.472 513.168 139.381C511.625 138.107 509.646 137.342 507.489 137.342C503.901 137.342 500.807 139.46 499.389 142.514C498.255 144.04 495.918 144.881 494.099 144.881C492.215 144.881 489.666 143.854 488.678 142.243C487.206 139.336 484.19 137.343 480.708 137.343C475.778 137.343 471.781 141.339 471.781 146.269C471.781 151.2 475.778 155.196 480.708 155.196C484.308 155.196 487.41 153.066 488.822 149.997C489.772 148.438 492.141 147.658 494.099 147.658C496.026 147.658 498.266 148.5 499.387 150.022C499.92 151.171 500.691 152.188 501.636 153.009C501.76 153.117 501.886 153.221 502.016 153.322C502.544 153.732 503.119 154.084 503.732 154.369C505.259 155.502 506.101 157.84 506.101 159.66C506.101 161.541 505.077 164.086 503.469 165.077C500.559 166.548 498.562 169.566 498.562 173.05C498.562 177.98 502.559 181.977 507.489 181.977C512.42 181.977 516.416 177.98 516.416 173.05Z" fill="#494948"/>
<circle cx="534.269" cy="173.05" r="8.92694" fill="#494948"/>
<circle cx="561.052" cy="173.05" r="8.92694" fill="#494948"/>
<path d="M596.76 146.269C596.76 142.668 594.627 139.565 591.556 138.153C589.999 137.202 589.222 134.835 589.222 132.879C589.222 130.951 590.063 128.711 591.586 127.59C594.641 126.172 596.76 123.078 596.76 119.488C596.76 114.558 592.763 110.562 587.833 110.562C582.903 110.562 578.906 114.558 578.906 119.488C578.906 123.076 581.023 126.17 584.076 127.589C585.603 128.722 586.444 131.06 586.444 132.879C586.444 134.76 585.421 137.304 583.814 138.296C582.024 139.2 580.58 140.689 579.733 142.512C578.6 144.039 576.262 144.881 574.442 144.881C572.561 144.881 570.017 143.858 569.025 142.251C567.555 139.339 564.537 137.342 561.052 137.342C556.122 137.342 552.125 141.339 552.125 146.269C552.125 151.199 556.122 155.196 561.052 155.196C564.653 155.196 567.757 153.064 569.168 149.992C570.12 148.436 572.486 147.658 574.442 147.658C576.37 147.658 578.61 148.5 579.731 150.023C579.749 150.062 579.767 150.101 579.786 150.139C580.682 151.998 582.202 153.499 584.075 154.369C585.603 155.502 586.444 157.84 586.444 159.66C586.444 161.541 585.421 164.085 583.814 165.077C581.085 166.455 579.159 169.194 578.929 172.402C578.914 172.616 578.906 172.832 578.906 173.05C578.906 177.98 582.903 181.977 587.833 181.977C591.222 181.977 594.171 180.088 595.682 177.305C595.777 177.131 595.866 176.954 595.949 176.773C596.9 175.217 599.267 174.439 601.223 174.439C603.151 174.439 605.391 175.281 606.512 176.804L606.517 176.816C607.406 178.723 608.948 180.264 610.856 181.15C612.384 182.283 613.225 184.621 613.225 186.441C613.225 188.321 612.202 190.865 610.595 191.857C607.683 193.328 605.687 196.346 605.687 199.831C605.687 204.761 609.683 208.758 614.614 208.758C619.544 208.758 623.54 204.761 623.54 199.831C623.54 196.229 621.408 193.126 618.336 191.715C616.78 190.763 616.002 188.396 616.002 186.441C616.002 184.513 616.844 182.273 618.367 181.152C621.422 179.734 623.54 176.64 623.54 173.05C623.54 168.279 619.798 164.382 615.088 164.136C614.931 164.127 614.773 164.123 614.614 164.123C611.026 164.123 607.932 166.24 606.513 169.293C605.38 170.82 603.042 171.662 601.223 171.662C599.342 171.662 596.798 170.639 595.806 169.032C594.897 167.23 593.394 165.779 591.556 164.934C589.999 163.982 589.222 161.616 589.222 159.66C589.222 157.732 590.063 155.492 591.586 154.371C591.593 154.368 591.599 154.365 591.605 154.362C591.769 154.286 591.93 154.205 592.088 154.119C592.341 153.981 592.586 153.832 592.824 153.672C595.198 152.067 596.76 149.351 596.76 146.269Z" fill="#494948"/>
</g>
<g opacity="0.07">
<path fill-rule="evenodd" clip-rule="evenodd" d="M126.28 -0.80043C127.692 -3.86918 130.794 -5.99963 134.393 -5.99963C139.324 -5.99963 143.32 -2.0029 143.32 2.92731C143.32 7.85752 139.324 11.8542 134.393 11.8542C130.912 11.8542 127.896 9.86122 126.424 6.95386C125.435 5.34228 122.886 4.31592 121.002 4.31592C119.183 4.31592 116.845 5.15722 115.712 6.6844C114.294 9.73736 111.2 11.8542 107.612 11.8542C102.682 11.8542 98.685 7.8575 98.685 2.92729C98.685 -2.00292 102.682 -5.99965 107.612 -5.99965C111.202 -5.99965 114.297 -3.88074 115.714 -0.825399C116.835 0.697096 119.075 1.53865 121.002 1.53865C122.96 1.53865 125.33 0.759094 126.28 -0.80043Z" fill="#969696"/>
<path fill-rule="evenodd" clip-rule="evenodd" d="M-7.62437 79.5414C-6.21202 76.4729 -3.11024 74.3428 0.489079 74.3428C5.41929 74.3428 9.41602 78.3395 9.41602 83.2697C9.41602 88.1999 5.41929 92.1967 0.489079 92.1967C-2.99235 92.1967 -6.00831 90.2037 -7.4802 87.2965C-8.46856 85.6848 -11.018 84.6583 -12.9022 84.6583C-14.7209 84.6583 -17.058 85.4992 -18.1915 87.0257C-19.6098 90.0793 -22.7037 92.1966 -26.2922 92.1966C-31.2224 92.1966 -35.2191 88.1999 -35.2191 83.2697C-35.2191 78.3395 -31.2224 74.3427 -26.2922 74.3427C-22.702 74.3427 -19.6068 76.4621 -18.1895 79.5179C-17.068 81.0398 -14.8289 81.881 -12.9022 81.881C-10.944 81.881 -8.57384 81.1013 -7.62437 79.5414Z" fill="#969696"/>
<path fill-rule="evenodd" clip-rule="evenodd" d="M80.8309 118.978C75.9007 118.978 71.9039 114.981 71.9039 110.051C71.9039 106.461 74.0227 103.366 77.0778 101.949C78.6006 100.827 79.4423 98.5875 79.4423 96.6601C79.4423 94.7045 78.6646 92.338 77.1088 91.3861C74.037 89.9751 71.9039 86.8715 71.9039 83.2698C71.9039 78.3395 75.9007 74.3428 80.8309 74.3428C85.7611 74.3428 89.7578 78.3395 89.7578 83.2698C89.7578 86.7539 87.7618 89.7719 84.8508 91.2425C83.2431 92.2339 82.2196 94.7788 82.2196 96.6601C82.2196 98.4796 83.0612 100.818 84.5888 101.951C87.6413 103.369 89.7578 106.463 89.7578 110.051C89.7578 114.981 85.7611 118.978 80.8309 118.978Z" fill="#969696"/>
<path fill-rule="evenodd" clip-rule="evenodd" d="M0.489079 145.758C-4.44113 145.758 -8.43786 141.762 -8.43786 136.831C-8.43786 133.242 -6.3194 130.147 -3.26459 128.73C-1.7416 127.609 -0.899747 125.368 -0.899747 123.441C-0.899747 121.485 -1.67782 119.118 -3.23438 118.166C-6.30543 116.755 -8.43786 113.652 -8.43786 110.051C-8.43786 105.12 -4.44113 101.124 0.489078 101.124C5.41929 101.124 9.41602 105.12 9.41602 110.051C9.41602 113.535 7.41947 116.553 4.50791 118.024C2.90068 119.016 1.87752 121.56 1.87752 123.441C1.87752 125.26 2.71888 127.598 4.24616 128.731C7.29914 130.15 9.41602 133.243 9.41602 136.831C9.41602 141.762 5.41929 145.758 0.489079 145.758Z" fill="#969696"/>
<path fill-rule="evenodd" clip-rule="evenodd" d="M19.1515 -0.789385C20.5614 -3.86406 23.6665 -5.99963 27.2703 -5.99963C32.2005 -5.99963 36.1973 -2.0029 36.1973 2.92731C36.1973 7.85752 32.2005 11.8542 27.2703 11.8542C23.7828 11.8542 20.7624 9.85435 19.2933 6.93882C18.2982 5.3359 15.759 4.31592 13.8808 4.31592C12.0624 4.31592 9.72572 5.15657 8.59202 6.68263C7.17395 9.73655 4.0798 11.8542 0.491032 11.8542C-4.43918 11.8542 -8.43591 7.85752 -8.43591 2.92731C-8.43591 -2.0029 -4.43918 -5.99963 0.491032 -5.99963C4.0815 -5.99963 7.17688 -3.87993 8.59404 -0.823664C9.71571 0.697726 11.9544 1.53865 13.8808 1.53865C15.8341 1.53865 18.1974 0.762775 19.1515 -0.789385Z" fill="#969696"/>
<path d="M170.1 29.7082C170.1 34.6384 166.103 38.6351 161.173 38.6351C156.243 38.6351 152.246 34.6384 152.246 29.7082C152.246 24.778 156.243 20.7812 161.173 20.7812C166.103 20.7812 170.1 24.778 170.1 29.7082Z" fill="#969696"/>
<path fill-rule="evenodd" clip-rule="evenodd" d="M142.364 25.6826C143.353 27.2937 145.901 28.3196 147.785 28.3196C149.76 28.3196 152.348 27.3275 153.34 25.5422C153.447 25.3482 153.45 34.0722 153.34 33.874C152.344 32.0914 149.88 31.0969 147.785 31.0969C145.827 31.0969 143.457 31.8766 142.507 33.4364C141.095 36.5048 137.993 38.635 134.394 38.635C129.464 38.635 125.467 34.6383 125.467 29.7081C125.467 24.7779 129.464 20.7811 134.394 20.7811C137.876 20.7811 140.892 22.7747 142.364 25.6826ZM157.452 11.0433C154.381 9.63221 152.248 6.52879 152.248 2.92723C152.248 -2.00298 156.244 -5.99971 161.175 -5.99971C166.105 -5.99971 170.102 -2.00298 170.102 2.92723C170.102 6.41109 168.106 9.42884 165.195 10.8996C163.587 11.8907 162.563 14.436 162.563 16.3177C162.563 18.2932 163.555 20.8804 165.341 21.8723C165.535 21.98 156.811 21.9829 157.009 21.8723C158.792 20.8769 159.786 18.4126 159.786 16.3177C159.786 14.3619 159.008 11.9951 157.452 11.0433Z" fill="#969696"/>
<path fill-rule="evenodd" clip-rule="evenodd" d="M62.9785 136.831C62.9785 141.762 58.9818 145.758 54.0516 145.758H54.0514H54.0512C50.4607 145.758 47.3653 143.639 45.9482 140.582C44.8264 139.061 42.5879 138.22 40.6616 138.22C38.7032 138.22 36.3329 139 35.3836 140.56C33.9711 143.628 30.8694 145.758 27.2703 145.758C22.3401 145.758 18.3434 141.762 18.3434 136.831C18.3434 131.901 22.3401 127.904 27.2703 127.904C30.752 127.904 33.7682 129.898 35.24 132.805C36.2286 134.417 38.7777 135.443 40.6616 135.443C42.4797 135.443 44.8158 134.603 45.9498 133.077C46.8388 131.162 48.3871 129.615 50.3033 128.727C51.824 127.605 52.6645 125.367 52.6645 123.441C52.6645 121.487 51.8883 119.124 50.3355 118.17C47.2603 116.76 45.1243 113.655 45.1243 110.05C45.1243 105.12 49.121 101.124 54.0512 101.124C58.9814 101.124 62.9782 105.12 62.9782 110.05C62.9782 113.53 60.9872 116.545 58.0824 118.018C56.4692 119.005 55.4417 121.556 55.4417 123.441C55.4417 125.261 56.2841 127.601 57.8131 128.733C60.8637 130.153 62.9785 133.245 62.9785 136.831Z" fill="#666666"/>
<path fill-rule="evenodd" clip-rule="evenodd" d="M35.2494 25.6999C36.2459 27.301 38.7831 28.3196 40.66 28.3196C42.4785 28.3196 44.8153 27.4789 45.949 25.9527C46.8381 24.0379 48.386 22.4912 50.3017 21.6037C51.8225 20.4818 52.663 18.2436 52.663 16.3176C52.663 14.362 51.8853 11.9955 50.3295 11.0436C47.2577 9.63258 45.1246 6.52901 45.1246 2.92723C45.1246 -2.00298 49.1214 -5.99971 54.0516 -5.99971C58.9818 -5.99971 62.9785 -2.00298 62.9785 2.92723C62.9785 6.4114 60.9825 9.42937 58.0715 10.9C56.4638 11.8915 55.4403 14.4362 55.4403 16.3176C55.4403 18.1369 56.2818 20.475 57.8092 21.6081C60.8619 23.0267 62.9785 26.1201 62.9785 29.708C62.9785 34.6382 58.9818 38.6349 54.0516 38.6349C53.9617 38.6349 53.8721 38.6336 53.7829 38.631C50.3071 38.5288 47.3299 36.4399 45.9477 33.4605C44.8263 31.9383 42.5869 31.0969 40.66 31.0969C38.7072 31.0969 36.3447 31.8724 35.3901 33.4237C33.9805 36.4989 30.8751 38.635 27.2708 38.635C22.3405 38.635 18.3438 34.6383 18.3438 29.7081C18.3438 24.7779 22.3405 20.7811 27.2708 20.7811C30.7596 20.7811 33.781 22.7825 35.2494 25.6999Z" fill="#969696"/>
<path fill-rule="evenodd" clip-rule="evenodd" d="M107.616 20.7811C104.012 20.7811 100.907 22.917 99.4969 25.992C98.5425 27.5436 96.1797 28.3192 94.2267 28.3192C92.2969 28.3192 90.0535 27.4753 88.9339 25.9487C88.046 24.039 86.5025 22.4959 84.5927 21.6083C83.0651 20.4753 82.2235 18.137 82.2235 16.3176C82.2235 14.4365 83.2467 11.8922 84.854 10.9004C87.7653 9.42994 89.7617 6.41176 89.7617 2.9273C89.7617 -2.00291 85.765 -5.99963 80.8348 -5.99963C75.9046 -5.99963 71.9078 -2.00291 71.9078 2.9273C71.9078 6.52929 74.0412 9.633 77.1132 11.0439C78.6687 11.996 79.4462 14.3622 79.4462 16.3176C79.4462 18.245 78.6045 20.4849 77.0817 21.606C76.9114 21.6851 76.744 21.7693 76.5797 21.8586C73.7969 23.3702 71.9078 26.3186 71.9078 29.7081C71.9078 34.6383 75.9046 38.635 80.8348 38.635C81.3951 38.635 81.9433 38.5834 82.475 38.4847C85.3461 37.9514 87.7345 36.0442 88.9324 33.4707C90.064 31.9399 92.4053 31.0965 94.2267 31.0965C96.1039 31.0965 98.6415 32.1154 99.6377 33.7169C101.106 36.6339 104.127 38.635 107.616 38.635C112.546 38.635 116.543 34.6383 116.543 29.7081C116.543 24.7779 112.546 20.7811 107.616 20.7811Z" fill="#666666"/>
<path fill-rule="evenodd" clip-rule="evenodd" d="M98.6852 56.489C98.6852 60.0908 100.818 63.1943 103.89 64.6053C105.446 65.5573 106.224 67.9238 106.224 69.8794C106.224 71.8063 105.382 74.0456 103.86 75.167C100.804 76.5844 98.685 79.6795 98.685 83.2697C98.685 85.8889 99.813 88.2447 101.61 89.8777C101.716 89.9738 101.824 90.0673 101.934 90.1583C103.477 91.4318 105.455 92.1968 107.612 92.1968C111.201 92.1968 114.295 90.0792 115.713 87.0254C116.847 85.499 119.184 84.6582 121.002 84.6582C122.886 84.6582 125.436 85.6846 126.424 87.2962C127.896 90.2035 130.912 92.1965 134.393 92.1965C139.324 92.1965 143.32 88.1998 143.32 83.2696C143.32 78.3394 139.324 74.3426 134.393 74.3426C130.794 74.3426 127.692 76.4731 126.28 79.5419C125.33 81.1014 122.96 81.8809 121.002 81.8809C119.075 81.8809 116.836 81.0395 115.714 79.5172C115.181 78.3679 114.411 77.351 113.466 76.5296C113.339 76.4194 113.209 76.3127 113.076 76.2096C112.551 75.8026 111.979 75.4529 111.37 75.1698C109.842 74.0368 109.001 71.6987 109.001 69.8794C109.001 67.998 110.024 65.4532 111.632 64.4617C114.543 62.9911 116.539 59.9731 116.539 56.489C116.539 51.5588 112.542 47.5621 107.612 47.5621C102.682 47.5621 98.6852 51.5588 98.6852 56.489Z" fill="#494948"/>
<circle cx="80.8328" cy="56.489" r="8.92694" transform="rotate(180 80.8328 56.489)" fill="#494948"/>
<circle cx="0.489079" cy="29.7081" r="8.92694" transform="rotate(180 0.489079 29.7081)" fill="#666666"/>
<circle cx="54.0496" cy="56.489" r="8.92694" transform="rotate(180 54.0496 56.489)" fill="#494948"/>
<path d="M18.3419 83.2698C18.3419 86.8712 20.4746 89.9745 23.5459 91.3857C25.1021 92.3374 25.88 94.7043 25.88 96.6602C25.88 98.5876 25.0382 100.828 23.5151 101.949C20.4603 103.367 18.3419 106.461 18.3419 110.051C18.3419 114.981 22.3386 118.978 27.2688 118.978C32.199 118.978 36.1958 114.981 36.1958 110.051C36.1957 106.463 34.0789 103.369 31.0261 101.951C29.4987 100.817 28.6573 98.4794 28.6573 96.6602C28.6573 94.7793 29.6803 92.2353 31.2873 91.2433C33.0775 90.3393 34.5219 88.8501 35.3689 87.0271C36.502 85.4997 38.84 84.6583 40.6593 84.6583C42.5402 84.6583 45.0841 85.6812 46.0761 87.2882C47.5465 90.2 50.5649 92.1967 54.0496 92.1967C58.9798 92.1967 62.9766 88.2 62.9766 83.2698C62.9766 78.3396 58.9798 74.3428 54.0496 74.3428C50.4482 74.3428 47.3449 76.4755 45.9337 79.5469C44.982 81.1031 42.6151 81.881 40.6593 81.881C38.7318 81.881 36.4916 81.0391 35.3706 79.5161C35.3525 79.4771 35.3341 79.4383 35.3155 79.3996C34.4198 77.5409 32.8992 76.04 31.0261 75.1697C29.4987 74.0366 28.6573 71.6986 28.6573 69.8793C28.6573 67.9984 29.6803 65.4545 31.2873 64.4625C34.017 63.084 35.9426 60.345 36.1726 57.1366C36.188 56.9227 36.1958 56.7068 36.1958 56.489C36.1958 51.5587 32.199 47.562 27.2688 47.562C23.8793 47.562 20.931 49.4511 19.4193 52.2339C19.3248 52.4078 19.2359 52.5853 19.1529 52.766C18.2012 54.3223 15.8343 55.1002 13.8784 55.1002C11.951 55.1002 9.71081 54.2583 8.58976 52.7353L8.58418 52.7233C7.6957 50.8163 6.1533 49.2754 4.24524 48.3889C2.71788 47.2557 1.87648 44.9178 1.87648 43.0985C1.87648 41.2176 2.89945 38.6737 4.50645 37.6817C7.41821 36.2113 9.41494 33.1929 9.41494 29.7082C9.41494 24.7779 5.41821 20.7812 0.487999 20.7812C-4.44221 20.7812 -8.43893 24.7779 -8.43893 29.7082C-8.43893 33.3096 -6.30626 36.4129 -3.23492 37.8241C-1.6787 38.7758 -0.900791 41.1427 -0.900791 43.0985C-0.900791 45.026 -1.74265 47.2662 -3.26566 48.3872C-6.32049 49.8049 -8.43893 52.8996 -8.43893 56.489C-8.43893 61.26 -4.69616 65.1568 0.0134239 65.4035C0.170578 65.4117 0.328804 65.4159 0.487999 65.4159C4.076 65.4159 7.16961 63.2991 8.5881 60.2462C9.72122 58.7188 12.0592 57.8774 13.8784 57.8774C15.7593 57.8774 18.3033 58.9004 19.2953 60.5074C20.205 62.3089 21.7073 63.7601 23.5459 64.6049C25.1021 65.5566 25.88 67.9235 25.88 69.8793C25.88 71.8068 25.0382 74.047 23.5152 75.168C23.5089 75.1709 23.5027 75.1738 23.4965 75.1767C23.3328 75.2531 23.1718 75.3344 23.0137 75.4203C22.7607 75.5577 22.5151 75.707 22.2777 75.8674C19.9031 77.4717 18.3419 80.1884 18.3419 83.2698Z" fill="#494948"/>
</g>
<rect x="265.268" y="40" width="70.4666" height="70.4666" rx="7.70729" fill="#EBCA1A"/>
<path d="M314.023 89.714L314.023 89.7388C314.022 90.7112 313.814 91.6723 313.413 92.5588C313.012 93.4453 312.427 94.2372 311.696 94.8823C310.966 95.5273 310.106 96.0109 309.174 96.3013C308.242 96.5917 307.259 96.6822 306.289 96.5669C305.32 96.4516 304.386 96.1331 303.549 95.6324C302.712 95.1317 301.991 94.4601 301.433 93.6618C300.875 92.8636 300.494 91.9568 300.314 91.0011C300.134 90.0456 300.159 89.0629 300.388 88.1177C300.54 87.4647 300.521 86.7838 300.333 86.1401C300.145 85.4963 299.795 84.9112 299.316 84.4406L299.315 84.4404L298.151 83.2827L298.151 83.2827C297.494 82.6282 296.676 82.156 295.778 81.9128C294.881 81.6697 293.936 81.664 293.036 81.8964L293.035 81.8964C292.037 82.1517 290.995 82.1818 289.984 81.9846C288.972 81.7874 288.018 81.3678 287.191 80.7566C286.363 80.1453 285.683 79.3578 285.2 78.4514C284.717 77.5451 284.444 76.5428 284.4 75.5177L284.4 75.5176C284.356 74.4441 284.565 73.3753 285.01 72.3965C285.455 71.4178 286.124 70.5563 286.963 69.8807C287.802 69.2052 288.788 68.7344 289.843 68.5059C290.897 68.2774 291.99 68.2975 293.035 68.5647C293.928 68.7881 294.864 68.7763 295.75 68.5304C296.637 68.2846 297.444 67.8131 298.092 67.1625L298.092 67.1623L298.737 66.5198L298.738 66.5195C299.349 65.9193 299.809 65.1829 300.079 64.371C300.348 63.5592 300.42 62.6952 300.289 61.8503C300.046 60.3848 300.285 58.8803 300.972 57.5618C301.659 56.2432 302.756 55.1815 304.1 54.5356C305.443 53.8896 306.96 53.694 308.425 53.9781C309.889 54.2622 311.222 55.0106 312.223 56.1115C313.225 57.2125 313.841 58.6067 313.981 60.0856C314.12 61.5646 313.775 63.0487 312.997 64.316C312.218 65.5833 311.049 66.5657 309.664 67.1162C308.278 67.6666 306.751 67.7557 305.31 67.37L305.31 67.3699C304.403 67.1264 303.447 67.125 302.539 67.3657C301.631 67.6065 300.802 68.081 300.137 68.7415L314.023 89.714ZM314.023 89.714L314.018 89.7099C314.013 88.6645 313.769 87.6339 313.304 86.6961C312.836 85.7509 312.157 84.9251 311.318 84.2825C310.479 83.6398 309.503 83.1972 308.466 82.9888C307.428 82.7804 306.357 82.8117 305.333 83.0804L305.333 83.0804C304.431 83.318 303.481 83.3155 302.58 83.0731C301.679 82.8308 300.857 82.3571 300.198 81.6994L300.198 81.6994L299.539 81.0437L314.023 89.714ZM299.548 69.3288L300.137 68.7416L299.539 81.0435C298.945 80.4441 298.506 79.711 298.258 78.9065C298.01 78.1019 297.961 77.2496 298.115 76.4221L298.115 76.4216C298.254 75.6251 298.254 74.8106 298.115 74.0141L298.115 74.0134C297.957 73.1754 298.004 72.3117 298.254 71.496C298.504 70.6804 298.948 69.9369 299.548 69.329C299.548 69.329 299.548 69.3289 299.548 69.3288Z" fill="#1B1B1A" stroke="#1B1B1A" stroke-width="0.09897"/>
<path d="M203.238 156.6C201.528 156.6 199.934 156.325 198.456 155.776C196.999 155.206 195.732 154.404 194.656 153.369C193.579 152.335 192.734 151.121 192.122 149.727C191.531 148.334 191.235 146.803 191.235 145.135C191.235 143.467 191.531 141.936 192.122 140.543C192.734 139.149 193.579 137.935 194.656 136.901C195.753 135.866 197.031 135.074 198.488 134.525C199.945 133.955 201.539 133.67 203.27 133.67C205.191 133.67 206.923 134.008 208.464 134.684C210.026 135.338 211.335 136.309 212.391 137.597L209.097 140.638C208.337 139.772 207.493 139.128 206.564 138.706C205.635 138.262 204.621 138.041 203.523 138.041C202.489 138.041 201.539 138.21 200.673 138.547C199.807 138.885 199.058 139.371 198.424 140.004C197.791 140.638 197.295 141.387 196.936 142.253C196.598 143.118 196.429 144.079 196.429 145.135C196.429 146.191 196.598 147.151 196.936 148.017C197.295 148.883 197.791 149.632 198.424 150.265C199.058 150.899 199.807 151.384 200.673 151.722C201.539 152.06 202.489 152.229 203.523 152.229C204.621 152.229 205.635 152.018 206.564 151.596C207.493 151.152 208.337 150.487 209.097 149.6L212.391 152.641C211.335 153.929 210.026 154.91 208.464 155.586C206.923 156.262 205.181 156.6 203.238 156.6ZM226.16 156.6C224.407 156.6 222.782 156.314 221.282 155.744C219.804 155.174 218.517 154.372 217.419 153.337C216.342 152.303 215.497 151.089 214.885 149.695C214.294 148.302 213.998 146.782 213.998 145.135C213.998 143.488 214.294 141.968 214.885 140.574C215.497 139.181 216.352 137.967 217.45 136.932C218.548 135.898 219.836 135.095 221.314 134.525C222.792 133.955 224.397 133.67 226.128 133.67C227.88 133.67 229.485 133.955 230.942 134.525C232.42 135.095 233.697 135.898 234.774 136.932C235.872 137.967 236.727 139.181 237.339 140.574C237.952 141.947 238.258 143.467 238.258 145.135C238.258 146.782 237.952 148.312 237.339 149.727C236.727 151.121 235.872 152.335 234.774 153.369C233.697 154.383 232.42 155.174 230.942 155.744C229.485 156.314 227.891 156.6 226.16 156.6ZM226.128 152.229C227.12 152.229 228.028 152.06 228.852 151.722C229.696 151.384 230.435 150.899 231.069 150.265C231.702 149.632 232.188 148.883 232.525 148.017C232.884 147.151 233.064 146.191 233.064 145.135C233.064 144.079 232.884 143.118 232.525 142.253C232.188 141.387 231.702 140.638 231.069 140.004C230.456 139.371 229.728 138.885 228.883 138.547C228.039 138.21 227.12 138.041 226.128 138.041C225.136 138.041 224.217 138.21 223.373 138.547C222.549 138.885 221.821 139.371 221.187 140.004C220.554 140.638 220.058 141.387 219.699 142.253C219.361 143.118 219.192 144.079 219.192 145.135C219.192 146.169 219.361 147.13 219.699 148.017C220.058 148.883 220.543 149.632 221.156 150.265C221.789 150.899 222.528 151.384 223.373 151.722C224.217 152.06 225.136 152.229 226.128 152.229ZM242.114 156.219V134.05H246.357L259.437 150.012H257.379V134.05H262.446V156.219H258.234L245.122 140.258H247.181V156.219H242.114ZM274.975 156.6C273.202 156.6 271.502 156.367 269.876 155.903C268.251 155.417 266.942 154.794 265.949 154.034L267.691 150.17C268.641 150.846 269.76 151.406 271.048 151.849C272.357 152.271 273.677 152.482 275.007 152.482C276.021 152.482 276.833 152.387 277.446 152.197C278.079 151.986 278.544 151.701 278.839 151.342C279.135 150.983 279.283 150.572 279.283 150.107C279.283 149.516 279.05 149.051 278.586 148.714C278.121 148.355 277.509 148.07 276.749 147.858C275.989 147.626 275.144 147.415 274.215 147.225C273.307 147.014 272.389 146.761 271.46 146.465C270.552 146.169 269.718 145.789 268.958 145.325C268.198 144.86 267.575 144.248 267.089 143.488C266.625 142.728 266.393 141.757 266.393 140.574C266.393 139.307 266.731 138.157 267.406 137.122C268.103 136.067 269.137 135.233 270.51 134.62C271.903 133.987 273.645 133.67 275.735 133.67C277.129 133.67 278.501 133.839 279.853 134.177C281.204 134.494 282.397 134.979 283.431 135.634L281.848 139.529C280.813 138.938 279.779 138.505 278.744 138.231C277.71 137.935 276.696 137.787 275.704 137.787C274.711 137.787 273.899 137.903 273.265 138.136C272.632 138.368 272.178 138.674 271.903 139.054C271.629 139.413 271.492 139.835 271.492 140.321C271.492 140.891 271.724 141.356 272.188 141.714C272.653 142.052 273.265 142.327 274.025 142.538C274.785 142.749 275.619 142.96 276.527 143.171C277.456 143.382 278.375 143.625 279.283 143.9C280.212 144.174 281.056 144.544 281.816 145.008C282.576 145.473 283.189 146.085 283.653 146.845C284.139 147.605 284.382 148.566 284.382 149.727C284.382 150.973 284.033 152.113 283.336 153.147C282.64 154.182 281.595 155.016 280.201 155.649C278.829 156.283 277.087 156.6 274.975 156.6ZM298.655 156.6C296.903 156.6 295.277 156.314 293.778 155.744C292.3 155.174 291.012 154.372 289.914 153.337C288.837 152.303 287.993 151.089 287.381 149.695C286.789 148.302 286.494 146.782 286.494 145.135C286.494 143.488 286.789 141.968 287.381 140.574C287.993 139.181 288.848 137.967 289.946 136.932C291.044 135.898 292.332 135.095 293.81 134.525C295.288 133.955 296.892 133.67 298.624 133.67C300.376 133.67 301.981 133.955 303.437 134.525C304.915 135.095 306.193 135.898 307.27 136.932C308.367 137.967 309.223 139.181 309.835 140.574C310.447 141.947 310.753 143.467 310.753 145.135C310.753 146.782 310.447 148.312 309.835 149.727C309.223 151.121 308.367 152.335 307.27 153.369C306.193 154.383 304.915 155.174 303.437 155.744C301.981 156.314 300.387 156.6 298.655 156.6ZM298.624 152.229C299.616 152.229 300.524 152.06 301.347 151.722C302.192 151.384 302.931 150.899 303.564 150.265C304.198 149.632 304.683 148.883 305.021 148.017C305.38 147.151 305.559 146.191 305.559 145.135C305.559 144.079 305.38 143.118 305.021 142.253C304.683 141.387 304.198 140.638 303.564 140.004C302.952 139.371 302.223 138.885 301.379 138.547C300.534 138.21 299.616 138.041 298.624 138.041C297.631 138.041 296.713 138.21 295.868 138.547C295.045 138.885 294.316 139.371 293.683 140.004C293.05 140.638 292.553 141.387 292.194 142.253C291.857 143.118 291.688 144.079 291.688 145.135C291.688 146.169 291.857 147.13 292.194 148.017C292.553 148.883 293.039 149.632 293.651 150.265C294.285 150.899 295.024 151.384 295.868 151.722C296.713 152.06 297.631 152.229 298.624 152.229ZM314.609 156.219V134.05H319.74V152.039H330.856V156.219H314.609ZM333.723 156.219V134.05H338.853V156.219H333.723ZM344.115 156.219V134.05H354.186C356.593 134.05 358.715 134.515 360.552 135.444C362.388 136.352 363.824 137.629 364.859 139.276C365.893 140.923 366.411 142.876 366.411 145.135C366.411 147.373 365.893 149.326 364.859 150.994C363.824 152.641 362.388 153.929 360.552 154.858C358.715 155.766 356.593 156.219 354.186 156.219H344.115ZM349.245 152.007H353.932C355.41 152.007 356.688 151.733 357.765 151.184C358.862 150.614 359.707 149.812 360.298 148.777C360.91 147.742 361.217 146.528 361.217 145.135C361.217 143.72 360.91 142.506 360.298 141.493C359.707 140.458 358.862 139.666 357.765 139.117C356.688 138.547 355.41 138.262 353.932 138.262H349.245V152.007ZM371.181 156.473C370.337 156.473 369.608 156.188 368.996 155.618C368.405 155.027 368.109 154.277 368.109 153.369C368.109 152.461 368.405 151.733 368.996 151.184C369.608 150.614 370.337 150.329 371.181 150.329C372.047 150.329 372.775 150.614 373.367 151.184C373.958 151.733 374.253 152.461 374.253 153.369C374.253 154.277 373.958 155.027 373.367 155.618C372.775 156.188 372.047 156.473 371.181 156.473ZM376.057 156.219L385.938 134.05H391.005L400.918 156.219H395.534L387.427 136.647H389.453L381.314 156.219H376.057ZM380.997 151.469L382.359 147.573H393.761L395.154 151.469H380.997ZM403.218 156.219V134.05H408.349V156.219H403.218Z" fill="white"/>
<path d="M218.152 173.721V166.975H221.085C221.846 166.975 222.503 167.113 223.057 167.39C223.619 167.668 224.051 168.059 224.351 168.566C224.66 169.073 224.815 169.667 224.815 170.348C224.815 171.029 224.66 171.622 224.351 172.129C224.051 172.636 223.619 173.028 223.057 173.305C222.503 173.582 221.846 173.721 221.085 173.721H218.152ZM219.304 172.759H221.038C221.592 172.759 222.063 172.664 222.451 172.474C222.839 172.276 223.136 171.995 223.342 171.63C223.548 171.266 223.651 170.839 223.651 170.348C223.651 169.849 223.548 169.421 223.342 169.065C223.136 168.701 222.839 168.42 222.451 168.222C222.063 168.024 221.592 167.925 221.038 167.925H219.304V172.759ZM226.491 173.721V166.975H227.643V173.721H226.491ZM235.624 172.949C235.403 173.131 235.153 173.289 234.876 173.424C234.599 173.55 234.302 173.649 233.985 173.721C233.669 173.784 233.348 173.816 233.023 173.816C232.311 173.816 231.674 173.665 231.111 173.364C230.549 173.063 230.106 172.652 229.781 172.129C229.465 171.599 229.306 171.005 229.306 170.348C229.306 169.675 229.465 169.081 229.781 168.566C230.106 168.044 230.541 167.632 231.088 167.331C231.642 167.03 232.271 166.88 232.976 166.88C233.562 166.88 234.084 166.967 234.544 167.141C235.003 167.315 235.387 167.58 235.696 167.937L234.959 168.685C234.698 168.408 234.401 168.206 234.069 168.079C233.744 167.945 233.388 167.877 233 167.877C232.517 167.877 232.081 167.984 231.693 168.198C231.313 168.404 231.012 168.693 230.791 169.065C230.577 169.437 230.47 169.865 230.47 170.348C230.47 170.815 230.581 171.238 230.803 171.618C231.024 171.991 231.329 172.284 231.717 172.497C232.105 172.711 232.544 172.818 233.035 172.818C233.415 172.818 233.764 172.763 234.08 172.652C234.397 172.533 234.69 172.351 234.959 172.105L235.624 172.949ZM234.508 172.96V170.312H235.624V172.949L234.508 172.96ZM237.706 173.721V166.975H238.858V173.721H237.706ZM242.35 173.721V167.925H240.046V166.975H245.806V167.925H243.502V173.721H242.35ZM245.427 173.721L248.514 166.975H249.655L252.754 173.721H251.59L248.894 167.58H249.286L246.555 173.721H245.427ZM246.84 172.117L247.149 171.203H250.854L251.163 172.117H246.84ZM253.897 173.721V166.975H255.049V172.759H258.672V173.721H253.897ZM263.106 173.721V166.975H264.258V172.759H267.88V173.721H263.106ZM272.015 173.816C271.318 173.816 270.693 173.665 270.139 173.364C269.584 173.063 269.145 172.652 268.82 172.129C268.504 171.599 268.345 171.001 268.345 170.336C268.345 169.679 268.504 169.089 268.82 168.566C269.145 168.044 269.584 167.632 270.139 167.331C270.693 167.03 271.318 166.88 272.015 166.88C272.72 166.88 273.345 167.03 273.891 167.331C274.446 167.632 274.881 168.044 275.198 168.566C275.523 169.089 275.685 169.679 275.685 170.336C275.685 171.001 275.523 171.599 275.198 172.129C274.881 172.652 274.446 173.063 273.891 173.364C273.345 173.665 272.72 173.816 272.015 173.816ZM272.015 172.818C272.498 172.818 272.926 172.711 273.298 172.497C273.678 172.284 273.975 171.991 274.188 171.618C274.41 171.238 274.521 170.815 274.521 170.348C274.521 169.865 274.41 169.441 274.188 169.077C273.975 168.705 273.678 168.412 273.298 168.198C272.926 167.984 272.498 167.877 272.015 167.877C271.54 167.877 271.112 167.984 270.732 168.198C270.352 168.404 270.051 168.693 269.83 169.065C269.616 169.437 269.509 169.865 269.509 170.348C269.509 170.815 269.616 171.238 269.83 171.618C270.051 171.991 270.352 172.284 270.732 172.497C271.112 172.711 271.54 172.818 272.015 172.818ZM283.049 172.949C282.827 173.131 282.578 173.289 282.301 173.424C282.024 173.55 281.727 173.649 281.41 173.721C281.093 173.784 280.773 173.816 280.448 173.816C279.735 173.816 279.098 173.665 278.536 173.364C277.974 173.063 277.53 172.652 277.206 172.129C276.889 171.599 276.731 171.005 276.731 170.348C276.731 169.675 276.889 169.081 277.206 168.566C277.53 168.044 277.966 167.632 278.512 167.331C279.066 167.03 279.696 166.88 280.4 166.88C280.986 166.88 281.509 166.967 281.968 167.141C282.427 167.315 282.811 167.58 283.12 167.937L282.384 168.685C282.122 168.408 281.826 168.206 281.493 168.079C281.168 167.945 280.812 167.877 280.424 167.877C279.941 167.877 279.506 167.984 279.118 168.198C278.738 168.404 278.437 168.693 278.215 169.065C278.001 169.437 277.894 169.865 277.894 170.348C277.894 170.815 278.005 171.238 278.227 171.618C278.449 171.991 278.754 172.284 279.142 172.497C279.529 172.711 279.969 172.818 280.46 172.818C280.84 172.818 281.188 172.763 281.505 172.652C281.822 172.533 282.115 172.351 282.384 172.105L283.049 172.949ZM281.932 172.96V170.312H283.049V172.949L281.932 172.96ZM285.131 173.721V166.975H286.283V173.721H285.131ZM293.29 171.797C293.29 172.208 293.179 172.565 292.958 172.865C292.744 173.166 292.431 173.4 292.02 173.566C291.616 173.732 291.125 173.816 290.547 173.816C290.024 173.816 289.514 173.744 289.015 173.602C288.524 173.451 288.14 173.253 287.863 173.008L288.314 172.105C288.583 172.319 288.92 172.497 289.324 172.64C289.727 172.774 290.151 172.842 290.594 172.842C291.164 172.842 291.564 172.751 291.794 172.569C292.023 172.379 292.138 172.157 292.138 171.903C292.138 171.682 292.063 171.508 291.913 171.381C291.77 171.246 291.576 171.143 291.331 171.072C291.085 170.993 290.816 170.922 290.523 170.858C290.238 170.795 289.949 170.724 289.656 170.645C289.371 170.565 289.106 170.459 288.86 170.324C288.623 170.189 288.429 170.007 288.278 169.778C288.128 169.54 288.053 169.243 288.053 168.887C288.053 168.483 288.164 168.131 288.385 167.83C288.607 167.529 288.92 167.295 289.324 167.129C289.727 166.963 290.21 166.88 290.772 166.88C291.184 166.88 291.592 166.927 291.996 167.022C292.4 167.109 292.748 167.256 293.041 167.462L292.625 168.388C292.34 168.19 292.031 168.052 291.699 167.972C291.374 167.893 291.054 167.854 290.737 167.854C290.198 167.854 289.807 167.949 289.561 168.139C289.324 168.321 289.205 168.546 289.205 168.816C289.205 169.037 289.28 169.215 289.43 169.35C289.581 169.477 289.775 169.58 290.012 169.659C290.258 169.73 290.527 169.797 290.82 169.861C291.113 169.924 291.402 169.995 291.687 170.075C291.972 170.154 292.237 170.261 292.483 170.395C292.728 170.53 292.922 170.712 293.065 170.942C293.215 171.163 293.29 171.448 293.29 171.797ZM295.968 173.721V167.925H293.664V166.975H299.424V167.925H297.12V173.721H295.968ZM300.626 173.721V166.975H301.778V173.721H300.626ZM307.099 173.816C306.402 173.816 305.777 173.665 305.222 173.364C304.668 173.063 304.233 172.652 303.916 172.129C303.599 171.599 303.441 171.005 303.441 170.348C303.441 169.675 303.599 169.081 303.916 168.566C304.233 168.044 304.668 167.632 305.222 167.331C305.777 167.03 306.402 166.88 307.099 166.88C307.677 166.88 308.187 166.967 308.631 167.141C309.074 167.315 309.45 167.58 309.759 167.937L309.023 168.685C308.769 168.408 308.484 168.206 308.168 168.079C307.851 167.945 307.507 167.877 307.134 167.877C306.651 167.877 306.216 167.984 305.828 168.198C305.448 168.404 305.147 168.693 304.925 169.065C304.712 169.437 304.605 169.865 304.605 170.348C304.605 170.815 304.712 171.238 304.925 171.618C305.147 171.991 305.448 172.284 305.828 172.497C306.216 172.711 306.651 172.818 307.134 172.818C307.507 172.818 307.851 172.751 308.168 172.616C308.484 172.481 308.769 172.276 309.023 171.999L309.759 172.747C309.45 173.103 309.07 173.372 308.619 173.554C308.176 173.728 307.669 173.816 307.099 173.816ZM316.011 171.797C316.011 172.208 315.9 172.565 315.678 172.865C315.465 173.166 315.152 173.4 314.74 173.566C314.336 173.732 313.845 173.816 313.267 173.816C312.745 173.816 312.234 173.744 311.735 173.602C311.244 173.451 310.86 173.253 310.583 173.008L311.035 172.105C311.304 172.319 311.64 172.497 312.044 172.64C312.448 172.774 312.872 172.842 313.315 172.842C313.885 172.842 314.285 172.751 314.514 172.569C314.744 172.379 314.859 172.157 314.859 171.903C314.859 171.682 314.784 171.508 314.633 171.381C314.491 171.246 314.297 171.143 314.051 171.072C313.806 170.993 313.537 170.922 313.244 170.858C312.959 170.795 312.67 170.724 312.377 170.645C312.092 170.565 311.826 170.459 311.581 170.324C311.343 170.189 311.149 170.007 310.999 169.778C310.849 169.54 310.773 169.243 310.773 168.887C310.773 168.483 310.884 168.131 311.106 167.83C311.328 167.529 311.64 167.295 312.044 167.129C312.448 166.963 312.931 166.88 313.493 166.88C313.905 166.88 314.313 166.927 314.716 167.022C315.12 167.109 315.468 167.256 315.761 167.462L315.346 168.388C315.061 168.19 314.752 168.052 314.419 167.972C314.095 167.893 313.774 167.854 313.457 167.854C312.919 167.854 312.527 167.949 312.282 168.139C312.044 168.321 311.925 168.546 311.925 168.816C311.925 169.037 312.001 169.215 312.151 169.35C312.301 169.477 312.495 169.58 312.733 169.659C312.978 169.73 313.248 169.797 313.541 169.861C313.834 169.924 314.123 169.995 314.408 170.075C314.693 170.154 314.958 170.261 315.203 170.395C315.449 170.53 315.643 170.712 315.785 170.942C315.936 171.163 316.011 171.448 316.011 171.797ZM321.757 169.825H325.308V170.763H321.757V169.825ZM321.947 172.759H325.854V173.721H320.795V166.975H325.723V167.925H321.947V172.759ZM330.585 173.816C329.888 173.816 329.263 173.665 328.708 173.364C328.154 173.063 327.719 172.652 327.402 172.129C327.085 171.599 326.927 171.005 326.927 170.348C326.927 169.675 327.085 169.081 327.402 168.566C327.719 168.044 328.154 167.632 328.708 167.331C329.263 167.03 329.888 166.88 330.585 166.88C331.163 166.88 331.674 166.967 332.117 167.141C332.56 167.315 332.936 167.58 333.245 167.937L332.509 168.685C332.255 168.408 331.97 168.206 331.654 168.079C331.337 167.945 330.993 167.877 330.62 167.877C330.138 167.877 329.702 167.984 329.314 168.198C328.934 168.404 328.633 168.693 328.411 169.065C328.198 169.437 328.091 169.865 328.091 170.348C328.091 170.815 328.198 171.238 328.411 171.618C328.633 171.991 328.934 172.284 329.314 172.497C329.702 172.711 330.138 172.818 330.62 172.818C330.993 172.818 331.337 172.751 331.654 172.616C331.97 172.481 332.255 172.276 332.509 171.999L333.245 172.747C332.936 173.103 332.556 173.372 332.105 173.554C331.662 173.728 331.155 173.816 330.585 173.816ZM337.66 173.816C336.963 173.816 336.338 173.665 335.783 173.364C335.229 173.063 334.79 172.652 334.465 172.129C334.149 171.599 333.99 171.001 333.99 170.336C333.99 169.679 334.149 169.089 334.465 168.566C334.79 168.044 335.229 167.632 335.783 167.331C336.338 167.03 336.963 166.88 337.66 166.88C338.365 166.88 338.99 167.03 339.536 167.331C340.091 167.632 340.526 168.044 340.843 168.566C341.167 169.089 341.33 169.679 341.33 170.336C341.33 171.001 341.167 171.599 340.843 172.129C340.526 172.652 340.091 173.063 339.536 173.364C338.99 173.665 338.365 173.816 337.66 173.816ZM337.66 172.818C338.143 172.818 338.57 172.711 338.943 172.497C339.323 172.284 339.62 171.991 339.833 171.618C340.055 171.238 340.166 170.815 340.166 170.348C340.166 169.865 340.055 169.441 339.833 169.077C339.62 168.705 339.323 168.412 338.943 168.198C338.57 167.984 338.143 167.877 337.66 167.877C337.185 167.877 336.757 167.984 336.377 168.198C335.997 168.404 335.696 168.693 335.475 169.065C335.261 169.437 335.154 169.865 335.154 170.348C335.154 170.815 335.261 171.238 335.475 171.618C335.696 171.991 335.997 172.284 336.377 172.497C336.757 172.711 337.185 172.818 337.66 172.818ZM347.72 171.797C347.72 172.208 347.609 172.565 347.387 172.865C347.174 173.166 346.861 173.4 346.449 173.566C346.045 173.732 345.554 173.816 344.976 173.816C344.454 173.816 343.943 173.744 343.444 173.602C342.954 173.451 342.57 173.253 342.292 173.008L342.744 172.105C343.013 172.319 343.349 172.497 343.753 172.64C344.157 172.774 344.581 172.842 345.024 172.842C345.594 172.842 345.994 172.751 346.223 172.569C346.453 172.379 346.568 172.157 346.568 171.903C346.568 171.682 346.493 171.508 346.342 171.381C346.2 171.246 346.006 171.143 345.76 171.072C345.515 170.993 345.246 170.922 344.953 170.858C344.668 170.795 344.379 170.724 344.086 170.645C343.801 170.565 343.535 170.459 343.29 170.324C343.052 170.189 342.859 170.007 342.708 169.778C342.558 169.54 342.482 169.243 342.482 168.887C342.482 168.483 342.593 168.131 342.815 167.83C343.037 167.529 343.349 167.295 343.753 167.129C344.157 166.963 344.64 166.88 345.202 166.88C345.614 166.88 346.022 166.927 346.425 167.022C346.829 167.109 347.178 167.256 347.471 167.462L347.055 168.388C346.77 168.19 346.461 168.052 346.128 167.972C345.804 167.893 345.483 167.854 345.166 167.854C344.628 167.854 344.236 167.949 343.991 168.139C343.753 168.321 343.634 168.546 343.634 168.816C343.634 169.037 343.71 169.215 343.86 169.35C344.011 169.477 344.205 169.58 344.442 169.659C344.687 169.73 344.957 169.797 345.25 169.861C345.543 169.924 345.832 169.995 346.117 170.075C346.402 170.154 346.667 170.261 346.912 170.395C347.158 170.53 347.352 170.712 347.494 170.942C347.645 171.163 347.72 171.448 347.72 171.797ZM350.779 173.721V171.108L351.005 171.856L348.012 166.975H349.235L351.706 170.942H351.076L353.523 166.975H354.71L351.729 171.856L351.931 171.108V173.721H350.779ZM360.443 171.797C360.443 172.208 360.332 172.565 360.11 172.865C359.897 173.166 359.584 173.4 359.172 173.566C358.768 173.732 358.278 173.816 357.7 173.816C357.177 173.816 356.666 173.744 356.167 173.602C355.677 173.451 355.293 173.253 355.015 173.008L355.467 172.105C355.736 172.319 356.072 172.497 356.476 172.64C356.88 172.774 357.304 172.842 357.747 172.842C358.317 172.842 358.717 172.751 358.947 172.569C359.176 172.379 359.291 172.157 359.291 171.903C359.291 171.682 359.216 171.508 359.065 171.381C358.923 171.246 358.729 171.143 358.483 171.072C358.238 170.993 357.969 170.922 357.676 170.858C357.391 170.795 357.102 170.724 356.809 170.645C356.524 170.565 356.259 170.459 356.013 170.324C355.776 170.189 355.582 170.007 355.431 169.778C355.281 169.54 355.205 169.243 355.205 168.887C355.205 168.483 355.316 168.131 355.538 167.83C355.76 167.529 356.072 167.295 356.476 167.129C356.88 166.963 357.363 166.88 357.925 166.88C358.337 166.88 358.745 166.927 359.148 167.022C359.552 167.109 359.901 167.256 360.194 167.462L359.778 168.388C359.493 168.19 359.184 168.052 358.852 167.972C358.527 167.893 358.206 167.854 357.89 167.854C357.351 167.854 356.959 167.949 356.714 168.139C356.476 168.321 356.357 168.546 356.357 168.816C356.357 169.037 356.433 169.215 356.583 169.35C356.734 169.477 356.928 169.58 357.165 169.659C357.411 169.73 357.68 169.797 357.973 169.861C358.266 169.924 358.555 169.995 358.84 170.075C359.125 170.154 359.39 170.261 359.635 170.395C359.881 170.53 360.075 170.712 360.217 170.942C360.368 171.163 360.443 171.448 360.443 171.797ZM363.121 173.721V167.925H360.817V166.975H366.577V167.925H364.273V173.721H363.121ZM368.74 169.825H372.291V170.763H368.74V169.825ZM368.93 172.759H372.838V173.721H367.778V166.975H372.707V167.925H368.93V172.759ZM374.552 173.721V166.975H375.537L378.495 171.892H378.043L380.953 166.975H381.951L381.963 173.721H380.858L380.846 168.744H381.024L378.518 172.913H377.984L375.407 168.744H375.656V173.721H374.552Z" fill="white"/>
</g>
<defs>
<radialGradient id="paint0_radial_660_3044" cx="0" cy="0" r="1" gradientUnits="userSpaceOnUse" gradientTransform="translate(-7.56347e-06 224) rotate(-13.1596) scale(616.181 3575.43)">
<stop stop-color="#2F2D2D"/>
<stop offset="1" stop-color="#141414"/>
</radialGradient>
<clipPath id="clip0_660_3044">
<rect width="600" height="224" rx="16" fill="white"/>
</clipPath>
</defs>
</svg>
