<svg width="32" height="32" viewBox="0 0 32 32" fill="none" xmlns="http://www.w3.org/2000/svg">
<path d="M12.667 14.6667V17.3333H14.667V22H17.3337V17.3333H19.3337L20.0003 14.6667H17.3337V13.3333C17.3337 12.9651 17.6321 12.6667 18.0003 12.6667H20.0003V10H18.0003C16.1594 10 14.667 11.4924 14.667 13.3333V14.6667H12.667" stroke="#525252" stroke-linecap="round" stroke-linejoin="round"/>
<path d="M12.667 14.6667V17.3333H14.667V22H17.3337V17.3333H19.3337L20.0003 14.6667H17.3337V13.3333C17.3337 12.9651 17.6321 12.6667 18.0003 12.6667H20.0003V10H18.0003C16.1594 10 14.667 11.4924 14.667 13.3333V14.6667H12.667" stroke="#525252" stroke-linecap="round" stroke-linejoin="round"/>
<rect x="0.5" y="0.5" width="31" height="31" rx="15.5" stroke="#525252"/>
</svg>
