<svg width="32" height="32" viewBox="0 0 32 32" fill="none" xmlns="http://www.w3.org/2000/svg">
<rect x="10.667" y="10.6667" width="10.6667" height="10.6667" rx="2" stroke="#525252" stroke-linecap="round" stroke-linejoin="round"/>
<rect x="10.667" y="10.6667" width="10.6667" height="10.6667" rx="2" stroke="#525252" stroke-linecap="round" stroke-linejoin="round"/>
<path d="M13.3333 15.3333V18.6666" stroke="#525252" stroke-linecap="round" stroke-linejoin="round"/>
<path d="M13.3333 15.3333V18.6666" stroke="#525252" stroke-linecap="round" stroke-linejoin="round"/>
<path d="M13.3333 13.3334V13.3401" stroke="#525252" stroke-width="1.75" stroke-linecap="round" stroke-linejoin="round"/>
<path d="M13.3333 13.3334V13.3401" stroke="#525252" stroke-width="1.75" stroke-linecap="round" stroke-linejoin="round"/>
<path d="M16.0003 18.6666V15.3333" stroke="#525252" stroke-linecap="round" stroke-linejoin="round"/>
<path d="M16.0003 18.6666V15.3333" stroke="#525252" stroke-linecap="round" stroke-linejoin="round"/>
<path d="M18.6667 18.6666V16.6666C18.6667 15.9302 18.0697 15.3333 17.3333 15.3333C16.597 15.3333 16 15.9302 16 16.6666" stroke="#525252" stroke-linecap="round" stroke-linejoin="round"/>
<path d="M18.6667 18.6666V16.6666C18.6667 15.9302 18.0697 15.3333 17.3333 15.3333C16.597 15.3333 16 15.9302 16 16.6666" stroke="#525252" stroke-linecap="round" stroke-linejoin="round"/>
<rect x="0.5" y="0.5" width="31" height="31" rx="15.5" stroke="#525252"/>
</svg>
