<svg width="26" height="26" viewBox="0 0 26 26" fill="none" xmlns="http://www.w3.org/2000/svg">
<path fill-rule="evenodd" clip-rule="evenodd" d="M14.9169 1.82719C13.7102 1.13052 12.2235 1.13052 11.0169 1.82719L4.22149 5.75051C3.01482 6.44718 2.27148 7.73468 2.27148 9.12802V16.9747C2.27148 18.368 3.01482 19.6555 4.22149 20.3522L11.0169 24.2755C12.2236 24.9722 13.7102 24.9722 14.9169 24.2755L21.7123 20.3522C22.919 19.6555 23.6623 18.368 23.6623 16.9747V9.12802C23.6623 7.73468 22.919 6.44718 21.7123 5.75051L14.9169 1.82719ZM11.42 21.9064C12.108 23.0981 13.8281 23.0981 14.5161 21.9064L21.4118 9.96266C22.0998 8.77099 21.2398 7.28141 19.8638 7.28141L6.07233 7.28141C4.69632 7.28141 3.83631 8.77099 4.52431 9.96266L11.42 21.9064Z" fill="#EBCA1A"/>
</svg>
