<svg width="48" height="48" viewBox="0 0 48 48" fill="none" xmlns="http://www.w3.org/2000/svg">
<rect width="48" height="48" rx="5.25" fill="#141414"/>
<path fill-rule="evenodd" clip-rule="evenodd" d="M26.4195 9.89357C24.8967 9.01436 23.0205 9.01436 21.4977 9.89357L12.9217 14.8449C11.3989 15.7241 10.4608 17.3489 10.4608 19.1074L10.4608 29.01C10.4608 30.7684 11.3989 32.3932 12.9217 33.2725L21.4977 38.2238C23.0205 39.103 24.8967 39.103 26.4195 38.2238L34.9955 33.2725C36.5183 32.3932 37.4564 30.7684 37.4564 29.01V19.1074C37.4564 17.3489 36.5183 15.7241 34.9955 14.8449L26.4195 9.89357ZM22.0061 35.2356C22.8744 36.7395 25.0451 36.7395 25.9134 35.2356L34.6159 20.1624C35.4842 18.6585 34.3988 16.7786 32.6623 16.7786L15.2572 16.7786C13.5206 16.7786 12.4353 18.6585 13.3036 20.1624L22.0061 35.2356Z" fill="white"/>
</svg>
