<svg width="528" height="528" viewBox="0 0 528 528" fill="none" xmlns="http://www.w3.org/2000/svg">
<g clip-path="url(#clip0_10434_82771)">
<path d="M190.08 0H168.96V21.12H190.08V0Z" fill="black"/>
<path d="M211.2 0H190.08V21.12H211.2V0Z" fill="black"/>
<path d="M253.44 0H232.32V21.12H253.44V0Z" fill="black"/>
<path d="M274.56 0H253.44V21.12H274.56V0Z" fill="black"/>
<path d="M295.68 0H274.56V21.12H295.68V0Z" fill="black"/>
<path d="M359.04 0H337.92V21.12H359.04V0Z" fill="black"/>
<path d="M190.08 21.12H168.96V42.24H190.08V21.12Z" fill="black"/>
<path d="M211.2 21.12H190.08V42.24H211.2V21.12Z" fill="black"/>
<path d="M232.32 21.12H211.2V42.24H232.32V21.12Z" fill="black"/>
<path d="M253.44 21.12H232.32V42.24H253.44V21.12Z" fill="black"/>
<path d="M274.56 21.12H253.44V42.24H274.56V21.12Z" fill="black"/>
<path d="M232.32 42.2401H211.2V63.3601H232.32V42.2401Z" fill="black"/>
<path d="M274.56 42.2401H253.44V63.3601H274.56V42.2401Z" fill="black"/>
<path d="M295.68 42.2401H274.56V63.3601H295.68V42.2401Z" fill="black"/>
<path d="M337.92 42.2401H316.8V63.3601H337.92V42.2401Z" fill="black"/>
<path d="M190.08 63.36H168.96V84.48H190.08V63.36Z" fill="black"/>
<path d="M211.2 63.36H190.08V84.48H211.2V63.36Z" fill="black"/>
<path d="M232.32 63.36H211.2V84.48H232.32V63.36Z" fill="black"/>
<path d="M253.44 63.36H232.32V84.48H253.44V63.36Z" fill="black"/>
<path d="M295.68 63.36H274.56V84.48H295.68V63.36Z" fill="black"/>
<path d="M316.8 63.36H295.68V84.48H316.8V63.36Z" fill="black"/>
<path d="M337.92 63.36H316.8V84.48H337.92V63.36Z" fill="black"/>
<path d="M232.32 84.4799H211.2V105.6H232.32V84.4799Z" fill="black"/>
<path d="M274.56 84.4799H253.44V105.6H274.56V84.4799Z" fill="black"/>
<path d="M295.68 84.4799H274.56V105.6H295.68V84.4799Z" fill="black"/>
<path d="M316.8 84.4799H295.68V105.6H316.8V84.4799Z" fill="black"/>
<path d="M337.92 84.4799H316.8V105.6H337.92V84.4799Z" fill="black"/>
<path d="M359.04 84.4799H337.92V105.6H359.04V84.4799Z" fill="black"/>
<path d="M232.32 105.6H211.2V126.72H232.32V105.6Z" fill="black"/>
<path d="M253.44 105.6H232.32V126.72H253.44V105.6Z" fill="black"/>
<path d="M316.8 105.6H295.68V126.72H316.8V105.6Z" fill="black"/>
<path d="M190.08 126.72H168.96V147.84H190.08V126.72Z" fill="black"/>
<path d="M232.32 126.72H211.2V147.84H232.32V126.72Z" fill="black"/>
<path d="M274.56 126.72H253.44V147.84H274.56V126.72Z" fill="black"/>
<path d="M316.8 126.72H295.68V147.84H316.8V126.72Z" fill="black"/>
<path d="M359.04 126.72H337.92V147.84H359.04V126.72Z" fill="black"/>
<path d="M190.08 147.84H168.96V168.96H190.08V147.84Z" fill="black"/>
<path d="M211.2 147.84H190.08V168.96H211.2V147.84Z" fill="black"/>
<path d="M359.04 147.84H337.92V168.96H359.04V147.84Z" fill="black"/>
<path d="M21.12 168.96H0V190.08H21.12V168.96Z" fill="black"/>
<path d="M63.3602 168.96H42.2402V190.08H63.3602V168.96Z" fill="black"/>
<path d="M84.4799 168.96H63.3599V190.08H84.4799V168.96Z" fill="black"/>
<path d="M126.72 168.96H105.6V190.08H126.72V168.96Z" fill="black"/>
<path d="M147.84 168.96H126.72V190.08H147.84V168.96Z" fill="black"/>
<path d="M168.96 168.96H147.84V190.08H168.96V168.96Z" fill="black"/>
<path d="M211.2 168.96H190.08V190.08H211.2V168.96Z" fill="black"/>
<path d="M232.32 168.96H211.2V190.08H232.32V168.96Z" fill="black"/>
<path d="M253.44 168.96H232.32V190.08H253.44V168.96Z" fill="black"/>
<path d="M274.56 168.96H253.44V190.08H274.56V168.96Z" fill="black"/>
<path d="M316.8 168.96H295.68V190.08H316.8V168.96Z" fill="black"/>
<path d="M359.04 168.96H337.92V190.08H359.04V168.96Z" fill="black"/>
<path d="M401.28 168.96H380.16V190.08H401.28V168.96Z" fill="black"/>
<path d="M464.64 168.96H443.52V190.08H464.64V168.96Z" fill="black"/>
<path d="M506.88 168.96H485.76V190.08H506.88V168.96Z" fill="black"/>
<path d="M528 168.96H506.88V190.08H528V168.96Z" fill="black"/>
<path d="M42.2401 190.08H21.1201V211.2H42.2401V190.08Z" fill="black"/>
<path d="M63.3602 190.08H42.2402V211.2H63.3602V190.08Z" fill="black"/>
<path d="M168.96 190.08H147.84V211.2H168.96V190.08Z" fill="black"/>
<path d="M190.08 190.08H168.96V211.2H190.08V190.08Z" fill="black"/>
<path d="M211.2 190.08H190.08V211.2H211.2V190.08Z" fill="black"/>
<path d="M253.44 190.08H232.32V211.2H253.44V190.08Z" fill="black"/>
<path d="M316.8 190.08H295.68V211.2H316.8V190.08Z" fill="black"/>
<path d="M359.04 190.08H337.92V211.2H359.04V190.08Z" fill="black"/>
<path d="M380.16 190.08H359.04V211.2H380.16V190.08Z" fill="black"/>
<path d="M422.4 190.08H401.28V211.2H422.4V190.08Z" fill="black"/>
<path d="M506.88 190.08H485.76V211.2H506.88V190.08Z" fill="black"/>
<path d="M42.2401 211.2H21.1201V232.32H42.2401V211.2Z" fill="black"/>
<path d="M105.6 211.2H84.48V232.32H105.6V211.2Z" fill="black"/>
<path d="M147.84 211.2H126.72V232.32H147.84V211.2Z" fill="black"/>
<path d="M168.96 211.2H147.84V232.32H168.96V211.2Z" fill="black"/>
<path d="M253.44 211.2H232.32V232.32H253.44V211.2Z" fill="black"/>
<path d="M295.68 211.2H274.56V232.32H295.68V211.2Z" fill="black"/>
<path d="M422.4 211.2H401.28V232.32H422.4V211.2Z" fill="black"/>
<path d="M42.2401 232.32H21.1201V253.44H42.2401V232.32Z" fill="black"/>
<path d="M84.4799 232.32H63.3599V253.44H84.4799V232.32Z" fill="black"/>
<path d="M105.6 232.32H84.48V253.44H105.6V232.32Z" fill="black"/>
<path d="M190.08 232.32H168.96V253.44H190.08V232.32Z" fill="black"/>
<path d="M253.44 232.32H232.32V253.44H253.44V232.32Z" fill="black"/>
<path d="M274.56 232.32H253.44V253.44H274.56V232.32Z" fill="black"/>
<path d="M295.68 232.32H274.56V253.44H295.68V232.32Z" fill="black"/>
<path d="M316.8 232.32H295.68V253.44H316.8V232.32Z" fill="black"/>
<path d="M337.92 232.32H316.8V253.44H337.92V232.32Z" fill="black"/>
<path d="M359.04 232.32H337.92V253.44H359.04V232.32Z" fill="black"/>
<path d="M380.16 232.32H359.04V253.44H380.16V232.32Z" fill="black"/>
<path d="M401.28 232.32H380.16V253.44H401.28V232.32Z" fill="black"/>
<path d="M464.64 232.32H443.52V253.44H464.64V232.32Z" fill="black"/>
<path d="M485.761 232.32H464.641V253.44H485.761V232.32Z" fill="black"/>
<path d="M42.2401 253.44H21.1201V274.56H42.2401V253.44Z" fill="black"/>
<path d="M84.4799 253.44H63.3599V274.56H84.4799V253.44Z" fill="black"/>
<path d="M126.72 253.44H105.6V274.56H126.72V253.44Z" fill="black"/>
<path d="M147.84 253.44H126.72V274.56H147.84V253.44Z" fill="black"/>
<path d="M168.96 253.44H147.84V274.56H168.96V253.44Z" fill="black"/>
<path d="M190.08 253.44H168.96V274.56H190.08V253.44Z" fill="black"/>
<path d="M232.32 253.44H211.2V274.56H232.32V253.44Z" fill="black"/>
<path d="M253.44 253.44H232.32V274.56H253.44V253.44Z" fill="black"/>
<path d="M295.68 253.44H274.56V274.56H295.68V253.44Z" fill="black"/>
<path d="M337.92 253.44H316.8V274.56H337.92V253.44Z" fill="black"/>
<path d="M359.04 253.44H337.92V274.56H359.04V253.44Z" fill="black"/>
<path d="M380.16 253.44H359.04V274.56H380.16V253.44Z" fill="black"/>
<path d="M401.28 253.44H380.16V274.56H401.28V253.44Z" fill="black"/>
<path d="M422.4 253.44H401.28V274.56H422.4V253.44Z" fill="black"/>
<path d="M443.52 253.44H422.4V274.56H443.52V253.44Z" fill="black"/>
<path d="M485.761 253.44H464.641V274.56H485.761V253.44Z" fill="black"/>
<path d="M506.88 253.44H485.76V274.56H506.88V253.44Z" fill="black"/>
<path d="M528 253.44H506.88V274.56H528V253.44Z" fill="black"/>
<path d="M42.2401 274.56H21.1201V295.68H42.2401V274.56Z" fill="black"/>
<path d="M126.72 274.56H105.6V295.68H126.72V274.56Z" fill="black"/>
<path d="M168.96 274.56H147.84V295.68H168.96V274.56Z" fill="black"/>
<path d="M190.08 274.56H168.96V295.68H190.08V274.56Z" fill="black"/>
<path d="M253.44 274.56H232.32V295.68H253.44V274.56Z" fill="black"/>
<path d="M295.68 274.56H274.56V295.68H295.68V274.56Z" fill="black"/>
<path d="M316.8 274.56H295.68V295.68H316.8V274.56Z" fill="black"/>
<path d="M337.92 274.56H316.8V295.68H337.92V274.56Z" fill="black"/>
<path d="M359.04 274.56H337.92V295.68H359.04V274.56Z" fill="black"/>
<path d="M401.28 274.56H380.16V295.68H401.28V274.56Z" fill="black"/>
<path d="M422.4 274.56H401.28V295.68H422.4V274.56Z" fill="black"/>
<path d="M443.52 274.56H422.4V295.68H443.52V274.56Z" fill="black"/>
<path d="M528 274.56H506.88V295.68H528V274.56Z" fill="black"/>
<path d="M42.2401 295.68H21.1201V316.8H42.2401V295.68Z" fill="black"/>
<path d="M84.4799 295.68H63.3599V316.8H84.4799V295.68Z" fill="black"/>
<path d="M105.6 295.68H84.48V316.8H105.6V295.68Z" fill="black"/>
<path d="M126.72 295.68H105.6V316.8H126.72V295.68Z" fill="black"/>
<path d="M147.84 295.68H126.72V316.8H147.84V295.68Z" fill="black"/>
<path d="M274.56 295.68H253.44V316.8H274.56V295.68Z" fill="black"/>
<path d="M316.8 295.68H295.68V316.8H316.8V295.68Z" fill="black"/>
<path d="M380.16 295.68H359.04V316.8H380.16V295.68Z" fill="black"/>
<path d="M443.52 295.68H422.4V316.8H443.52V295.68Z" fill="black"/>
<path d="M485.761 295.68H464.641V316.8H485.761V295.68Z" fill="black"/>
<path d="M506.88 295.68H485.76V316.8H506.88V295.68Z" fill="black"/>
<path d="M21.12 316.8H0V337.92H21.12V316.8Z" fill="black"/>
<path d="M63.3602 316.8H42.2402V337.92H63.3602V316.8Z" fill="black"/>
<path d="M105.6 316.8H84.48V337.92H105.6V316.8Z" fill="black"/>
<path d="M190.08 316.8H168.96V337.92H190.08V316.8Z" fill="black"/>
<path d="M232.32 316.8H211.2V337.92H232.32V316.8Z" fill="black"/>
<path d="M274.56 316.8H253.44V337.92H274.56V316.8Z" fill="black"/>
<path d="M337.92 316.8H316.8V337.92H337.92V316.8Z" fill="black"/>
<path d="M380.16 316.8H359.04V337.92H380.16V316.8Z" fill="black"/>
<path d="M422.4 316.8H401.28V337.92H422.4V316.8Z" fill="black"/>
<path d="M443.52 316.8H422.4V337.92H443.52V316.8Z" fill="black"/>
<path d="M528 316.8H506.88V337.92H528V316.8Z" fill="black"/>
<path d="M63.3602 337.92H42.2402V359.04H63.3602V337.92Z" fill="black"/>
<path d="M84.4799 337.92H63.3599V359.04H84.4799V337.92Z" fill="black"/>
<path d="M105.6 337.92H84.48V359.04H105.6V337.92Z" fill="black"/>
<path d="M147.84 337.92H126.72V359.04H147.84V337.92Z" fill="black"/>
<path d="M168.96 337.92H147.84V359.04H168.96V337.92Z" fill="black"/>
<path d="M211.2 337.92H190.08V359.04H211.2V337.92Z" fill="black"/>
<path d="M232.32 337.92H211.2V359.04H232.32V337.92Z" fill="black"/>
<path d="M253.44 337.92H232.32V359.04H253.44V337.92Z" fill="black"/>
<path d="M295.68 337.92H274.56V359.04H295.68V337.92Z" fill="black"/>
<path d="M359.04 337.92H337.92V359.04H359.04V337.92Z" fill="black"/>
<path d="M380.16 337.92H359.04V359.04H380.16V337.92Z" fill="black"/>
<path d="M401.28 337.92H380.16V359.04H401.28V337.92Z" fill="black"/>
<path d="M422.4 337.92H401.28V359.04H422.4V337.92Z" fill="black"/>
<path d="M443.52 337.92H422.4V359.04H443.52V337.92Z" fill="black"/>
<path d="M464.64 337.92H443.52V359.04H464.64V337.92Z" fill="black"/>
<path d="M485.761 337.92H464.641V359.04H485.761V337.92Z" fill="black"/>
<path d="M506.88 337.92H485.76V359.04H506.88V337.92Z" fill="black"/>
<path d="M528 337.92H506.88V359.04H528V337.92Z" fill="black"/>
<path d="M190.08 359.04H168.96V380.16H190.08V359.04Z" fill="black"/>
<path d="M211.2 359.04H190.08V380.16H211.2V359.04Z" fill="black"/>
<path d="M232.32 359.04H211.2V380.16H232.32V359.04Z" fill="black"/>
<path d="M274.56 359.04H253.44V380.16H274.56V359.04Z" fill="black"/>
<path d="M295.68 359.04H274.56V380.16H295.68V359.04Z" fill="black"/>
<path d="M359.04 359.04H337.92V380.16H359.04V359.04Z" fill="black"/>
<path d="M443.52 359.04H422.4V380.16H443.52V359.04Z" fill="black"/>
<path d="M485.761 359.04H464.641V380.16H485.761V359.04Z" fill="black"/>
<path d="M528 359.04H506.88V380.16H528V359.04Z" fill="black"/>
<path d="M190.08 380.16H168.96V401.28H190.08V380.16Z" fill="black"/>
<path d="M232.32 380.16H211.2V401.28H232.32V380.16Z" fill="black"/>
<path d="M253.44 380.16H232.32V401.28H253.44V380.16Z" fill="black"/>
<path d="M274.56 380.16H253.44V401.28H274.56V380.16Z" fill="black"/>
<path d="M359.04 380.16H337.92V401.28H359.04V380.16Z" fill="black"/>
<path d="M401.28 380.16H380.16V401.28H401.28V380.16Z" fill="black"/>
<path d="M443.52 380.16H422.4V401.28H443.52V380.16Z" fill="black"/>
<path d="M485.761 380.16H464.641V401.28H485.761V380.16Z" fill="black"/>
<path d="M506.88 380.16H485.76V401.28H506.88V380.16Z" fill="black"/>
<path d="M528 380.16H506.88V401.28H528V380.16Z" fill="black"/>
<path d="M190.08 401.28H168.96V422.4H190.08V401.28Z" fill="black"/>
<path d="M211.2 401.28H190.08V422.4H211.2V401.28Z" fill="black"/>
<path d="M274.56 401.28H253.44V422.4H274.56V401.28Z" fill="black"/>
<path d="M337.92 401.28H316.8V422.4H337.92V401.28Z" fill="black"/>
<path d="M359.04 401.28H337.92V422.4H359.04V401.28Z" fill="black"/>
<path d="M443.52 401.28H422.4V422.4H443.52V401.28Z" fill="black"/>
<path d="M506.88 401.28H485.76V422.4H506.88V401.28Z" fill="black"/>
<path d="M211.2 422.4H190.08V443.52H211.2V422.4Z" fill="black"/>
<path d="M253.44 422.4H232.32V443.52H253.44V422.4Z" fill="black"/>
<path d="M316.8 422.4H295.68V443.52H316.8V422.4Z" fill="black"/>
<path d="M359.04 422.4H337.92V443.52H359.04V422.4Z" fill="black"/>
<path d="M380.16 422.4H359.04V443.52H380.16V422.4Z" fill="black"/>
<path d="M401.28 422.4H380.16V443.52H401.28V422.4Z" fill="black"/>
<path d="M422.4 422.4H401.28V443.52H422.4V422.4Z" fill="black"/>
<path d="M443.52 422.4H422.4V443.52H443.52V422.4Z" fill="black"/>
<path d="M464.64 422.4H443.52V443.52H464.64V422.4Z" fill="black"/>
<path d="M528 422.4H506.88V443.52H528V422.4Z" fill="black"/>
<path d="M190.08 443.52H168.96V464.64H190.08V443.52Z" fill="black"/>
<path d="M232.32 443.52H211.2V464.64H232.32V443.52Z" fill="black"/>
<path d="M274.56 443.52H253.44V464.64H274.56V443.52Z" fill="black"/>
<path d="M295.68 443.52H274.56V464.64H295.68V443.52Z" fill="black"/>
<path d="M359.04 443.52H337.92V464.64H359.04V443.52Z" fill="black"/>
<path d="M401.28 443.52H380.16V464.64H401.28V443.52Z" fill="black"/>
<path d="M443.52 443.52H422.4V464.64H443.52V443.52Z" fill="black"/>
<path d="M464.64 443.52H443.52V464.64H464.64V443.52Z" fill="black"/>
<path d="M485.761 443.52H464.641V464.64H485.761V443.52Z" fill="black"/>
<path d="M506.88 443.52H485.76V464.64H506.88V443.52Z" fill="black"/>
<path d="M528 443.52H506.88V464.64H528V443.52Z" fill="black"/>
<path d="M190.08 464.64H168.96V485.76H190.08V464.64Z" fill="black"/>
<path d="M211.2 464.64H190.08V485.76H211.2V464.64Z" fill="black"/>
<path d="M253.44 464.64H232.32V485.76H253.44V464.64Z" fill="black"/>
<path d="M274.56 464.64H253.44V485.76H274.56V464.64Z" fill="black"/>
<path d="M316.8 464.64H295.68V485.76H316.8V464.64Z" fill="black"/>
<path d="M337.92 464.64H316.8V485.76H337.92V464.64Z" fill="black"/>
<path d="M380.16 464.64H359.04V485.76H380.16V464.64Z" fill="black"/>
<path d="M401.28 464.64H380.16V485.76H401.28V464.64Z" fill="black"/>
<path d="M443.52 464.64H422.4V485.76H443.52V464.64Z" fill="black"/>
<path d="M485.761 464.64H464.641V485.76H485.761V464.64Z" fill="black"/>
<path d="M506.88 464.64H485.76V485.76H506.88V464.64Z" fill="black"/>
<path d="M211.2 485.76H190.08V506.88H211.2V485.76Z" fill="black"/>
<path d="M232.32 485.76H211.2V506.88H232.32V485.76Z" fill="black"/>
<path d="M253.44 485.76H232.32V506.88H253.44V485.76Z" fill="black"/>
<path d="M274.56 485.76H253.44V506.88H274.56V485.76Z" fill="black"/>
<path d="M295.68 485.76H274.56V506.88H295.68V485.76Z" fill="black"/>
<path d="M316.8 485.76H295.68V506.88H316.8V485.76Z" fill="black"/>
<path d="M337.92 485.76H316.8V506.88H337.92V485.76Z" fill="black"/>
<path d="M380.16 485.76H359.04V506.88H380.16V485.76Z" fill="black"/>
<path d="M401.28 485.76H380.16V506.88H401.28V485.76Z" fill="black"/>
<path d="M443.52 485.76H422.4V506.88H443.52V485.76Z" fill="black"/>
<path d="M485.761 485.76H464.641V506.88H485.761V485.76Z" fill="black"/>
<path d="M190.08 506.88H168.96V528H190.08V506.88Z" fill="black"/>
<path d="M253.44 506.88H232.32V528H253.44V506.88Z" fill="black"/>
<path d="M274.56 506.88H253.44V528H274.56V506.88Z" fill="black"/>
<path d="M295.68 506.88H274.56V528H295.68V506.88Z" fill="black"/>
<path d="M422.4 506.88H401.28V528H422.4V506.88Z" fill="black"/>
<path d="M443.52 506.88H422.4V528H443.52V506.88Z" fill="black"/>
<path d="M464.64 506.88H443.52V528H464.64V506.88Z" fill="black"/>
<path d="M485.761 506.88H464.641V528H485.761V506.88Z" fill="black"/>
<path d="M506.88 506.88H485.76V528H506.88V506.88Z" fill="black"/>
<path d="M528 506.88H506.88V528H528V506.88Z" fill="black"/>
<path d="M125.664 0H22.176H0V22.176V125.664V147.84H22.176H125.664H147.84V125.664V22.176V0H125.664ZM125.664 125.664H22.176V22.176H125.664V125.664Z" fill="black"/>
<path d="M505.824 0H402.336H380.16V22.176V125.664V147.84H402.336H505.824H528V125.664V22.176V0H505.824ZM505.824 125.664H402.336V22.176H505.824V125.664Z" fill="black"/>
<path d="M125.664 380.16H22.176H0V402.336V505.824V528H22.176H125.664H147.84V505.824V402.336V380.16H125.664ZM125.664 505.824H22.176V402.336H125.664V505.824Z" fill="black"/>
<path d="M105.6 42.2401H42.2402V105.6H105.6V42.2401Z" fill="black"/>
<path d="M485.76 42.2401H422.4V105.6H485.76V42.2401Z" fill="black"/>
<path d="M105.6 422.4H42.2402V485.76H105.6V422.4Z" fill="black"/>
</g>
<defs>
<clipPath id="clip0_10434_82771">
<rect width="528" height="528" fill="white"/>
</clipPath>
</defs>
</svg>
